# Blender 3.5.0
# www.blender.org
o Cube
v -2.329695 -0.168957 0.014870
v -2.329695 -0.168957 1.051622
v -2.329695 0.490736 0.014870
v -2.329695 0.490736 1.051622
v 2.033652 -0.168957 0.014870
v 2.033652 -0.168957 1.051622
v 2.033652 0.490736 0.014870
v 2.033652 0.490736 1.051622
v -0.459689 0.490736 0.014870
v -0.459689 0.490736 1.051622
v -0.459689 -0.168957 0.014870
v -0.459689 -0.168957 1.051622
v -1.193248 0.490736 0.014870
v -1.193248 -0.168957 1.051622
v -1.193248 0.490736 1.051622
v -1.193248 -0.168957 0.014870
v -2.329695 0.321977 0.014870
v -2.329695 0.321977 1.051622
v 2.033652 0.321977 0.014870
v 2.033652 0.321977 1.051622
v -0.459689 0.321977 1.051622
v -0.459689 0.321977 0.014870
v -1.193248 0.321977 0.014870
v -1.193248 0.321977 1.051622
v -2.329695 -0.085876 0.014870
v 2.033652 -0.085876 1.051622
v -0.459689 -0.085876 1.051622
v -0.459689 -0.085876 0.014870
v -1.193248 -0.085876 0.014870
v -1.193248 -0.085876 1.051622
v -2.329695 -0.085876 1.051622
v 2.033652 -0.085876 0.014870
v -1.398073 0.490736 0.014870
v -1.398073 -0.168957 1.051622
v -1.398073 0.490736 1.051622
v -1.398073 -0.168957 0.014870
v -1.398073 0.321977 0.014870
v -1.398073 0.321977 1.051622
v -1.398073 -0.085876 0.014870
v -1.398073 -0.085876 1.051622
v -2.329695 0.321977 2.555649
v -2.329695 0.490736 2.555649
v -1.398073 -0.168957 2.555649
v -2.329695 -0.168957 2.555649
v -2.329695 -0.085876 2.555649
v -1.398073 0.490736 2.555649
v -1.398073 0.321977 2.555649
v -1.398073 -0.085876 2.555649
v -1.193248 0.321977 0.837412
v -0.459689 0.321977 0.837412
v -0.459689 -0.085876 0.837412
v -1.193248 -0.085876 0.837412
vn -1.0000 -0.0000 -0.0000
vn -0.0000 1.0000 -0.0000
vn 1.0000 -0.0000 -0.0000
vn -0.0000 -1.0000 -0.0000
vn -0.0000 -0.0000 -1.0000
vn -0.0000 -0.0000 1.0000
s 0
f 17//1 18//1 4//1 3//1
f 9//2 10//2 8//2 7//2
f 32//3 26//3 6//3 5//3
f 36//4 34//4 2//4 1//4
f 28//5 32//5 5//5 11//5
f 34//3 40//3 48//3 43//3
f 26//6 27//6 12//6 6//6
f 29//5 28//5 11//5 16//5
f 5//4 6//4 12//4 11//4
f 13//2 15//2 10//2 9//2
f 33//2 35//2 15//2 13//2
f 39//5 29//5 16//5 36//5
f 27//6 30//6 14//6 12//6
f 11//4 12//4 14//4 16//4
f 10//6 15//6 24//6 21//6
f 33//5 13//5 23//5 37//5
f 13//5 9//5 22//5 23//5
f 8//6 10//6 21//6 20//6
f 18//1 31//1 45//1 41//1
f 9//5 7//5 19//5 22//5
f 7//3 8//3 20//3 19//3
f 25//1 31//1 18//1 17//1
f 1//1 2//1 31//1 25//1
f 30//2 27//2 51//2 52//2
f 37//5 23//5 29//5 39//5
f 23//5 22//5 28//5 29//5
f 20//6 21//6 27//6 26//6
f 35//2 4//2 42//2 46//2
f 22//5 19//5 32//5 28//5
f 19//3 20//3 26//3 32//3
f 24//6 38//6 40//6 30//6
f 17//5 37//5 39//5 25//5
f 15//6 35//6 38//6 24//6
f 3//5 33//5 37//5 17//5
f 25//5 39//5 36//5 1//5
f 3//2 4//2 35//2 33//2
f 30//6 40//6 34//6 14//6
f 16//4 14//4 34//4 36//4
f 48//6 45//6 44//6 43//6
f 46//6 42//6 41//6 47//6
f 47//6 41//6 45//6 48//6
f 31//1 2//1 44//1 45//1
f 38//3 35//3 46//3 47//3
f 40//3 38//3 47//3 48//3
f 4//1 18//1 41//1 42//1
f 2//4 34//4 43//4 44//4
f 50//6 49//6 52//6 51//6
f 24//3 30//3 52//3 49//3
f 21//4 24//4 49//4 50//4
f 27//1 21//1 50//1 51//1
