mtllib material.mtl
usemtl material_0
v -0.03121800 0.04930000 -0.01802400
v -0.03121800 0.04930000 -0.01802400
v -0.03121800 0.04930000 -0.01802400
v -0.03121800 0.04930000 -0.01802400
v -0.03121800 0.04930000 -0.01802400
v -0.01560900 0.06960000 -0.00901200
v -0.01560900 0.06960000 -0.00901200
v -0.01560900 0.06960000 -0.00901200
v -0.03121800 0.04930000 0.01802300
v -0.03121800 0.04930000 0.01802300
v -0.03121800 0.04930000 0.01802300
v -0.03121800 0.04930000 0.01802300
v -0.03121800 0.04930000 0.01802300
v -0.03121800 0.04930000 0.01802300
v -0.01560900 0.06960000 0.00901200
v -0.01560900 0.06960000 0.00901200
v -0.01560900 0.06960000 0.00901200
v 0.00000000 0.06960000 -0.01802400
v 0.00000000 0.06960000 -0.01802400
v 0.00000000 0.06960000 -0.01802400
v 0.00000000 0.06960000 0.01802300
v 0.00000000 0.06960000 0.01802300
v 0.00000000 0.06960000 0.01802300
v -0.02051700 0.03480000 -0.01184600
v -0.02051700 0.03480000 -0.01184600
v -0.02051700 0.03480000 -0.01184600
v -0.02051700 0.03480000 0.01184600
v -0.02051700 0.03480000 0.01184600
v -0.02051700 0.03480000 0.01184600
v -0.01681700 0.04350000 -0.00970900
v -0.01681700 0.04350000 -0.00970900
v -0.01681700 0.04350000 -0.00970900
v -0.01681700 0.04350000 0.00970900
v -0.01681700 0.04350000 0.00970900
v -0.01681700 0.04350000 0.00970900
v 0.00000000 0.04930000 -0.03604700
v 0.00000000 0.04930000 -0.03604700
v 0.00000000 0.04930000 -0.03604700
v -0.02762600 0.03480000 -0.01595000
v -0.02762600 0.03480000 -0.01595000
v -0.02762600 0.03480000 -0.01595000
v 0.00000000 0.03480000 -0.03190000
v 0.00000000 0.03480000 -0.03190000
v 0.00000000 0.03480000 -0.03190000
v 0.00000000 0.03480000 0.03190000
v 0.00000000 0.03480000 0.03190000
v 0.00000000 0.03480000 0.03190000
v -0.00000000 0.03480000 0.02369100
v -0.00000000 0.03480000 0.02369100
v -0.00000000 0.03480000 0.02369100
v -0.02762600 0.03480000 0.01595000
v -0.02762600 0.03480000 0.01595000
v -0.02762600 0.03480000 0.01595000
v -0.02762600 0.03480000 0.01595000
v -0.00000000 0.03480000 -0.02369100
v -0.00000000 0.03480000 -0.02369100
v -0.00000000 0.03480000 -0.02369100
v 0.00000000 0.04930000 0.03604700
v 0.00000000 0.04930000 0.03604700
v 0.00000000 0.04930000 0.03604700
v 0.00000000 0.04350000 0.01941900
v 0.00000000 0.04350000 0.01941900
v 0.00000000 0.04350000 0.01941900
v 0.00000000 0.04350000 0.00686200
v 0.00000000 0.04350000 0.00686200
v -0.00594300 0.04350000 0.00343100
v -0.00594300 0.04350000 -0.00343100
v 0.00000000 0.04350000 -0.01941900
v 0.00000000 0.04350000 -0.01941900
v 0.00000000 0.04350000 -0.01941900
v 0.00000000 0.04350000 -0.00686200
v 0.00000000 0.04350000 -0.00686200
v 0.00000000 0.05031700 0.00607700
v 0.00000000 0.05031700 0.00686200
v 0.00000000 0.05031700 0.02602900
v 0.00000000 0.06278300 0.01496000
v 0.00000000 0.06278300 -0.01496000
v 0.00000000 0.05031700 -0.02602900
v 0.00000000 0.05031700 -0.00686200
v 0.00000000 0.05031700 -0.00607700
vn -0.83270000 -0.27500000 -0.48070000
vn -0.83260000 -0.27500000 -0.48070000
vn -0.83260000 -0.27500000 -0.48070000
vn -0.64760000 0.66390000 -0.37390000
vn -0.64760000 0.66390000 -0.37390000
vn -0.64760000 0.66390000 -0.37390000
vn -0.64760000 0.66390000 -0.37390000
vn -0.00000000 1.00000000 -0.00000000
vn -0.83270000 -0.27500000 0.48070000
vn -0.83260000 -0.27500000 0.48070000
vn -0.64760000 0.66390000 0.37390000
vn -0.64760000 0.66390000 0.37390000
vn -0.64760000 0.66400000 0.37390000
vn -0.64760000 0.66400000 0.37390000
vn -0.00000000 1.00000000 -0.00000000
vn -0.64760000 0.66390000 0.37390000
vn -0.64760000 0.66390000 0.37390000
vn -0.00000000 1.00000000 -0.00000000
vn 1.00000000 -0.00000000 -0.00000000
vn -0.39640000 0.60950000 -0.68650000
vn 1.00000000 -0.00000000 -0.00000000
vn -0.39640000 0.60950000 0.68650000
vn -0.00000000 1.00000000 -0.00000000
vn -0.00000000 -1.00000000 -0.00000000
vn 0.92020000 -0.39130000 -0.00000000
vn 0.46010000 -0.39130000 0.79700000
vn -0.00000000 -1.00000000 -0.00000000
vn 0.92020000 -0.39130000 -0.00000000
vn 0.46010000 -0.39130000 -0.79700000
vn 0.92020000 -0.39130000 -0.00000000
vn -0.00000000 -1.00000000 -0.00000000
vn 0.46010000 -0.39130000 0.79700000
vn 0.92020000 -0.39130000 -0.00000000
vn -0.00000000 -1.00000000 -0.00000000
vn 0.46010000 -0.39130000 -0.79700000
vn 1.00000000 -0.00000000 -0.00000000
vn -0.39640000 0.60950000 -0.68650000
vn -0.48530000 -0.24040000 -0.84060000
vn -0.00000000 -1.00000000 -0.00000000
vn -0.83260000 -0.27500000 -0.48070000
vn -0.83260000 -0.27500000 -0.48070000
vn -0.00000000 -1.00000000 -0.00000000
vn -0.48530000 -0.24040000 -0.84060000
vn 1.00000000 -0.00000000 -0.00000000
vn 1.00000000 -0.00000000 -0.00000000
vn -0.48530000 -0.24040000 0.84060000
vn -0.00000000 -1.00000000 -0.00000000
vn 1.00000000 -0.00000000 -0.00000000
vn -0.00000000 -1.00000000 -0.00000000
vn 0.46010000 -0.39130000 -0.79700000
vn -0.83260000 -0.27500000 0.48070000
vn -0.83260000 -0.27500000 0.48070000
vn -0.83270000 -0.27500000 0.48070000
vn -0.00000000 -1.00000000 -0.00000000
vn 0.46010000 -0.39130000 0.79700000
vn 1.00000000 -0.00000000 -0.00000000
vn -0.00000000 -1.00000000 -0.00000000
vn 1.00000000 -0.00000000 -0.00000000
vn -0.48530000 -0.24040000 0.84060000
vn -0.39640000 0.60950000 0.68650000
vn -0.00000000 -1.00000000 -0.00000000
vn 1.00000000 -0.00000000 -0.00000000
vn 0.46010000 -0.39130000 -0.79700000
vn -0.00000000 -1.00000000 -0.00000000
vn 1.00000000 -0.00000000 -0.00000000
vn -0.00000000 -1.00000000 -0.00000000
vn -0.00000000 -1.00000000 -0.00000000
vn -0.00000000 -1.00000000 -0.00000000
vn 1.00000000 -0.00000000 -0.00000000
vn 0.46010000 -0.39130000 0.79700000
vn -0.00000000 -1.00000000 -0.00000000
vn 1.00000000 -0.00000000 -0.00000000
vn 1.00000000 -0.00000000 -0.00000000
vn 1.00000000 -0.00000000 -0.00000000
vn 1.00000000 -0.00000000 -0.00000000
vn 1.00000000 -0.00000000 -0.00000000
vn 1.00000000 -0.00000000 -0.00000000
vn 1.00000000 -0.00000000 -0.00000000
vn 1.00000000 -0.00000000 -0.00000000
vn 1.00000000 -0.00000000 -0.00000000
vt 1.41917300 4.35899900
vt -1.41917300 4.35899900
vt 1.41917300 4.35899900
vt -1.41917300 1.57903900
vt 1.41917300 1.57903900
vt -0.70958700 3.59534800
vt 0.70958700 3.59534800
vt 1.22904000 -0.70958700
vt -1.41917300 4.35899900
vt 1.41917300 4.35899900
vt 1.41917300 1.57903900
vt -1.41917300 1.57903900
vt -1.41917300 1.57903900
vt 1.41917300 1.57903900
vt 1.22904000 0.70958700
vt 0.70958700 3.59534800
vt -0.70958700 3.59534800
vt 0.00000000 -1.41917300
vt 1.41917300 5.48031500
vt -0.70958700 3.59534800
vt -1.41917300 5.48031500
vt 0.70958700 3.59534800
vt 0.00000000 1.41917300
vt -1.61551300 -0.93271700
vt 0.93271700 1.88938900
vt -0.93271700 1.88938900
vt -1.61551300 0.93271700
vt -0.93271700 1.88938900
vt 0.93271700 1.88938900
vt 0.76452200 2.63379900
vt -1.32419100 -0.76452200
vt -0.76452200 2.63379900
vt -0.76452200 2.63379900
vt -1.32419100 0.76452200
vt 0.76452200 2.63379900
vt 2.83834600 3.88189000
vt -1.41917300 1.57903900
vt -1.41917300 4.35899900
vt -2.17529200 -1.25590600
vt -1.25590600 3.18276700
vt 1.25590600 3.18276700
vt 0.00000000 -2.51181100
vt -1.25590600 3.18276700
vt 2.51181100 2.74015700
vt -2.51181100 2.74015700
vt 1.25590600 3.18276700
vt 0.00000000 2.51181100
vt -1.86543400 2.74015700
vt -0.00000000 1.86543400
vt -0.93271700 1.88938900
vt -1.25590600 3.18276700
vt 1.25590600 3.18276700
vt -1.25590600 3.18276700
vt -2.17529200 1.25590600
vt 0.93271700 1.88938900
vt 1.86543400 2.74015700
vt -0.00000000 -1.86543400
vt -2.83834600 3.88189000
vt 1.41917300 4.35899900
vt 1.41917300 1.57903900
vt 0.00000000 1.52904400
vt -1.52904400 3.42519700
vt -0.76452200 2.63379900
vt 0.00000000 0.54034400
vt -0.54034400 3.42519700
vt -0.46795200 0.27017200
vt -0.46795200 -0.27017200
vt 0.00000000 -1.52904400
vt 1.52904400 3.42519700
vt 0.76452200 2.63379900
vt 0.00000000 -0.54034400
vt 0.54034400 3.42519700
vt -0.47853200 3.96194200
vt -0.54034400 3.96194200
vt -2.04949900 3.96194200
vt -1.17795300 4.94357000
vt 1.17795300 4.94357000
vt 2.04949900 3.96194200
vt 0.54034400 3.96194200
vt 0.47853200 3.96194200
f 11/11/11 6/6/6 4/4/4
f 6/6/6 14/14/14 16/16/16
f 8/8/8 23/23/23 18/18/18
f 23/23/23 8/8/8 15/15/15
f 30/30/30 28/28/28 25/25/25
f 28/28/28 30/30/30 33/33/33
f 7/7/7 37/37/37 5/5/5
f 37/37/37 7/7/7 20/20/20
f 1/1/1 43/43/43 41/41/41
f 43/43/43 3/3/3 38/38/38
f 54/54/54 49/49/49 47/47/47
f 49/49/49 54/54/54 27/27/27
f 27/27/27 54/54/54 24/24/24
f 39/39/39 24/24/24 54/54/54
f 39/39/39 57/57/57 24/24/24
f 57/57/57 39/39/39 42/42/42
f 22/22/22 12/12/12 60/60/60
f 13/13/13 22/22/22 17/17/17
f 34/34/34 64/64/64 61/61/61
f 64/64/64 34/34/34 66/66/66
f 66/66/66 34/34/34 67/67/67
f 31/31/31 67/67/67 34/34/34
f 68/68/68 67/67/67 31/31/31
f 67/67/67 68/68/68 71/71/71
f 59/59/59 51/51/51 46/46/46
f 53/53/53 59/59/59 9/9/9
f 40/40/40 10/10/10 2/2/2
f 10/10/10 40/40/40 52/52/52
f 35/35/35 50/50/50 29/29/29
f 50/50/50 35/35/35 63/63/63
f 70/70/70 26/26/26 55/55/55
f 26/26/26 70/70/70 32/32/32
f 74/74/74 65/65/65 73/73/73
f 65/65/65 74/74/74 75/75/75
f 65/65/65 75/75/75 62/62/62
f 62/62/62 75/75/75 48/48/48
f 48/48/48 75/75/75 45/45/45
f 75/75/75 58/58/58 45/45/45
f 75/75/75 21/21/21 58/58/58
f 76/76/76 21/21/21 75/75/75
f 77/77/77 21/21/21 76/76/76
f 77/77/77 19/19/19 21/21/21
f 78/78/78 19/19/19 77/77/77
f 78/78/78 36/36/36 19/19/19
f 36/36/36 78/78/78 44/44/44
f 78/78/78 56/56/56 44/44/44
f 56/56/56 78/78/78 69/69/69
f 69/69/69 78/78/78 79/79/79
f 69/69/69 79/79/79 72/72/72
f 72/72/72 79/79/79 80/80/80