# Blender 3.5.0
# www.blender.org
mtllib mushroomHalf.mtl
o mushroomHalf
v -0.031218 0.049300 -0.018024
v -0.015609 0.069600 -0.009012
v -0.031218 0.049300 0.018023
v -0.015609 0.069600 0.009012
v 0.000000 0.069600 -0.018024
v 0.000000 0.069600 0.018023
v -0.020517 0.034800 -0.011846
v -0.020517 0.034800 0.011846
v -0.016817 0.043500 -0.009709
v -0.016817 0.043500 0.009709
v 0.000000 0.049300 -0.036047
v -0.027626 0.034800 -0.015950
v 0.000000 0.034800 -0.031900
v 0.000000 0.034800 0.031900
v -0.000000 0.034800 0.023691
v -0.027626 0.034800 0.015950
v -0.000000 0.034800 -0.023691
v 0.000000 0.049300 0.036047
v 0.000000 0.043500 0.019419
v 0.000000 0.043500 0.006862
v -0.005943 0.043500 0.003431
v -0.005943 0.043500 -0.003431
v 0.000000 0.043500 -0.019419
v 0.000000 0.043500 -0.006862
v 0.000000 0.050317 0.006077
v 0.000000 0.050317 0.006862
v 0.000000 0.050317 0.026029
v 0.000000 0.062783 0.014960
v 0.000000 0.062783 -0.014960
v 0.000000 0.050317 -0.026029
v 0.000000 0.050317 -0.006862
v 0.000000 0.050317 -0.006077
v 0.000000 0.000000 0.011872
v 0.000000 -0.000000 -0.011872
v -0.010281 0.000000 0.005936
v -0.010281 -0.000000 -0.005936
vn -0.6476 0.6639 0.3739
vn -0.6476 0.6639 -0.3739
vn -0.6476 0.6640 0.3739
vn -0.0000 1.0000 -0.0000
vn 0.9202 -0.3913 -0.0000
vn -0.3964 0.6095 -0.6865
vn -0.8327 -0.2750 -0.4807
vn -0.4853 -0.2404 -0.8406
vn -0.8326 -0.2750 -0.4807
vn -0.0000 -1.0000 -0.0000
vn -0.3964 0.6095 0.6865
vn -0.4853 -0.2404 0.8406
vn -0.8326 -0.2750 0.4807
vn -0.8327 -0.2750 0.4807
vn 0.4601 -0.3913 -0.7970
vn 0.4601 -0.3913 0.7970
vn 1.0000 -0.0000 -0.0000
vn -0.8603 0.1144 -0.4967
vn -0.4975 0.0992 -0.8618
vn -0.4975 0.0992 0.8618
vn -0.8603 0.1144 0.4967
vt -1.419173 1.579039
vt 1.419173 1.579039
vt 1.419173 4.358999
vt -1.419173 4.358999
vt -0.709587 3.595348
vt 1.229040 -0.709587
vt 0.709587 3.595348
vt 1.419173 1.579039
vt -1.419173 1.579039
vt -1.419173 4.358999
vt 1.419173 4.358999
vt 0.709587 3.595348
vt 1.229040 0.709587
vt -0.709587 3.595348
vt 0.000000 -1.419173
vt -0.709587 3.595348
vt 1.419173 5.480315
vt 0.000000 1.419173
vt 0.709587 3.595348
vt -1.419173 5.480315
vt 0.932717 1.889389
vt -1.615513 -0.932717
vt -0.932717 1.889389
vt -0.932717 1.889389
vt -1.615513 0.932717
vt 0.932717 1.889389
vt 0.764522 2.633799
vt -1.324191 -0.764522
vt -0.764522 2.633799
vt -0.764522 2.633799
vt -1.324191 0.764522
vt 0.764522 2.633799
vt -1.419173 1.579039
vt -1.419173 4.358999
vt 2.838346 3.881890
vt 1.255906 3.182767
vt -2.175292 -1.255906
vt -1.255906 3.182767
vt -1.255906 3.182767
vt 0.000000 -2.511811
vt 2.511811 2.740157
vt 0.000000 2.511811
vt 1.255906 3.182767
vt -2.511811 2.740157
vt -0.000000 1.865434
vt -0.932717 1.889389
vt -1.865434 2.740157
vt -2.175292 1.255906
vt -1.255906 3.182767
vt 1.255906 3.182767
vt -0.000000 -1.865434
vt 0.932717 1.889389
vt 1.865434 2.740157
vt 1.419173 1.579039
vt 1.419173 4.358999
vt -2.838346 3.881890
vt 0.000000 1.529044
vt -0.764522 2.633799
vt -1.529044 3.425197
vt 0.000000 0.540344
vt 0.270172 3.361848
vt -0.540344 3.425197
vt -0.467952 0.270172
vt -0.270172 3.361848
vt 0.270172 3.361848
vt -0.467952 -0.270172
vt 0.270172 3.361848
vt -0.270172 3.361848
vt 0.000000 -1.529044
vt 0.764522 2.633799
vt 1.529044 3.425197
vt 0.000000 -0.540344
vt -0.270172 3.361848
vt 0.540344 3.425197
vt -0.478532 3.961942
vt -0.540344 3.961942
vt -2.049499 3.961942
vt -1.177953 4.943570
vt 1.177953 4.943570
vt 2.049499 3.961942
vt 0.540344 3.961942
vt 0.478532 3.961942
vt 0.000000 0.934796
vt 0.467398 -0.080341
vt -0.934796 -0.000000
vt 0.000000 -0.934796
vt -0.467398 -0.080341
vt 0.934796 0.000000
vt -0.809557 0.467398
vt -0.467398 -0.080341
vt 0.467398 -0.080341
vt -0.809557 -0.467398
vt 0.467398 -0.080341
vt -0.467398 -0.080341
s 0
usemtl brownDark
f 3/8/1 2/5/2 1/1/2
f 2/5/2 3/8/3 4/12/1
f 2/6/4 6/18/4 5/15/4
f 6/18/4 2/6/4 4/13/4
f 9/27/5 8/24/5 7/21/5
f 8/24/5 9/27/5 10/30/5
f 2/7/2 11/33/6 1/2/2
f 11/33/6 2/7/2 5/16/6
f 1/3/7 13/39/8 12/36/9
f 13/39/8 1/3/9 11/34/8
f 16/48/10 15/45/10 14/42/10
f 15/45/10 16/48/10 8/25/10
f 8/25/10 16/48/10 7/22/10
f 12/37/10 7/22/10 16/48/10
f 12/37/10 17/51/10 7/22/10
f 17/51/10 12/37/10 13/40/10
f 6/19/11 3/9/1 18/54/11
f 3/9/3 6/19/11 4/14/1
f 10/31/10 20/60/10 19/57/10
f 20/60/10 10/31/10 21/63/10
f 21/63/10 10/31/10 22/66/10
f 9/28/10 22/66/10 10/31/10
f 23/69/10 22/66/10 9/28/10
f 22/66/10 23/69/10 24/72/10
f 18/55/12 16/49/13 14/43/12
f 16/49/14 18/55/12 3/10/14
f 12/38/9 3/11/13 1/4/9
f 3/11/13 12/38/9 16/50/13
f 10/32/15 15/46/15 8/26/15
f 15/46/15 10/32/15 19/58/15
f 23/70/16 7/23/16 17/52/16
f 7/23/16 23/70/16 9/29/16
f 26/76/17 20/62/17 25/75/17
f 20/62/17 26/76/17 27/77/17
f 20/62/17 27/77/17 19/59/17
f 19/59/17 27/77/17 15/47/17
f 15/47/17 27/77/17 14/44/17
f 27/77/17 18/56/17 14/44/17
f 27/77/17 6/20/17 18/56/17
f 28/78/17 6/20/17 27/77/17
f 29/79/17 6/20/17 28/78/17
f 29/79/17 5/17/17 6/20/17
f 30/80/17 5/17/17 29/79/17
f 30/80/17 11/35/17 5/17/17
f 11/35/17 30/80/17 13/41/17
f 30/80/17 17/53/17 13/41/17
f 17/53/17 30/80/17 23/71/17
f 23/71/17 30/80/17 31/81/17
f 23/71/17 31/81/17 24/74/17
f 24/74/17 31/81/17 32/82/17
usemtl brownLight
f 35/89/10 34/86/10 33/83/10
f 34/86/10 35/89/10 36/92/10
f 22/67/18 34/87/19 36/93/18
f 34/87/19 22/67/18 24/73/19
f 20/61/20 35/90/21 33/84/20
f 35/90/21 20/61/20 21/64/21
f 35/91/21 22/68/18 36/94/18
f 22/68/18 35/91/21 21/65/21
f 29/79/17 31/81/17 30/80/17
f 31/81/17 29/79/17 28/78/17
f 31/81/17 28/78/17 32/82/17
f 32/82/17 28/78/17 25/75/17
f 25/75/17 28/78/17 26/76/17
f 26/76/17 28/78/17 27/77/17
f 33/85/17 32/82/17 25/75/17
f 33/85/17 25/75/17 20/62/17
f 33/85/17 24/74/17 32/82/17
f 24/74/17 33/85/17 34/88/17
