mtllib material.mtl
usemtl material_0
v -0.30988900 -0.17656800 -0.01561100
v 0.30292400 -0.17750400 -0.01561100
v 0.30292400 -0.17750400 0.01023800
v -0.30988900 -0.17656800 0.01023800
v -0.26400400 -0.14864600 0.01459200
v 0.25712500 -0.14944200 0.01459200
v 0.25712500 -0.14944200 -0.00748900
v -0.26400400 -0.14864600 -0.00748900
v 0.30345600 0.17086000 -0.01898500
v 0.30292700 -0.17541600 -0.01898500
v -0.30988600 -0.17448000 -0.01898500
v -0.30935600 0.17179600 -0.01898500
v 0.30346000 0.17294800 -0.01561100
v -0.30935300 0.17388400 -0.01561100
v -0.30935300 0.17388400 0.01023800
v 0.30346000 0.17294800 0.01023800
v 0.30662300 -0.17542200 -0.01561100
v 0.30715100 0.17085500 -0.01561100
v 0.30715100 0.17085500 0.01023800
v 0.30662300 -0.17542200 0.01023800
v -0.31358100 -0.17447400 -0.01561100
v -0.30988600 -0.17448000 -0.01898500
v -0.30988900 -0.17656800 -0.01561100
v -0.31305200 0.17180200 -0.01561100
v -0.30935300 0.17388400 -0.01561100
v -0.30935600 0.17179600 -0.01898500
v 0.30662300 -0.17542200 -0.01561100
v 0.30292400 -0.17750400 -0.01561100
v 0.30292700 -0.17541600 -0.01898500
v 0.30346000 0.17294800 -0.01561100
v 0.30715100 0.17085500 -0.01561100
v 0.30345600 0.17086000 -0.01898500
v -0.31358100 -0.17447400 0.01023800
v -0.30988900 -0.17656800 0.01023800
v -0.30988600 -0.17448000 0.01459200
v -0.31305200 0.17180200 0.01023800
v -0.30935600 0.17179600 0.01459200
v -0.30935300 0.17388400 0.01023800
v 0.30346000 0.17294800 0.01023800
v 0.30345600 0.17086000 0.01459200
v 0.30715100 0.17085500 0.01023800
v 0.30662300 -0.17542200 0.01023800
v 0.30292700 -0.17541600 0.01459200
v 0.30292400 -0.17750400 0.01023800
v -0.31358100 -0.17447400 -0.01561100
v -0.31305200 0.17180200 -0.01561100
v -0.30935600 0.17179600 -0.01898500
v -0.30988600 -0.17448000 -0.01898500
v -0.30935300 0.17388400 -0.01561100
v 0.30346000 0.17294800 -0.01561100
v 0.30345600 0.17086000 -0.01898500
v -0.30935600 0.17179600 -0.01898500
v 0.30715100 0.17085500 -0.01561100
v 0.30662300 -0.17542200 -0.01561100
v 0.30292700 -0.17541600 -0.01898500
v 0.30345600 0.17086000 -0.01898500
v 0.30292400 -0.17750400 -0.01561100
v -0.30988900 -0.17656800 -0.01561100
v -0.30988600 -0.17448000 -0.01898500
v 0.30292700 -0.17541600 -0.01898500
v -0.30988600 -0.17448000 0.01459200
v -0.30935600 0.17179600 0.01459200
v -0.31305200 0.17180200 0.01023800
v -0.31358100 -0.17447400 0.01023800
v -0.30935600 0.17179600 0.01459200
v 0.30345600 0.17086000 0.01459200
v 0.30346000 0.17294800 0.01023800
v -0.30935300 0.17388400 0.01023800
v 0.30345600 0.17086000 0.01459200
v 0.30292700 -0.17541600 0.01459200
v 0.30662300 -0.17542200 0.01023800
v 0.30715100 0.17085500 0.01023800
v 0.30292700 -0.17541600 0.01459200
v -0.30988600 -0.17448000 0.01459200
v -0.30988900 -0.17656800 0.01023800
v 0.30292400 -0.17750400 0.01023800
v 0.30346000 0.17294800 -0.01561100
v 0.30346000 0.17294800 0.01023800
v 0.30715100 0.17085500 0.01023800
v 0.30715100 0.17085500 -0.01561100
v 0.30292400 -0.17750400 0.01023800
v 0.30292400 -0.17750400 -0.01561100
v 0.30662300 -0.17542200 -0.01561100
v 0.30662300 -0.17542200 0.01023800
v -0.30988900 -0.17656800 -0.01561100
v -0.30988900 -0.17656800 0.01023800
v -0.31358100 -0.17447400 0.01023800
v -0.31358100 -0.17447400 -0.01561100
v -0.30935300 0.17388400 0.01023800
v -0.30935300 0.17388400 -0.01561100
v -0.31305200 0.17180200 -0.01561100
v -0.31305200 0.17180200 0.01023800
v -0.31305200 0.17180200 -0.01561100
v -0.31358100 -0.17447400 -0.01561100
v -0.31358100 -0.17447400 0.01023800
v -0.31305200 0.17180200 0.01023800
v -0.26400400 -0.14864600 0.01459200
v -0.26355400 0.14582300 0.01459200
v -0.30935600 0.17179600 0.01459200
v -0.30988600 -0.17448000 0.01459200
v -0.26355400 0.14582300 0.01459200
v 0.25757500 0.14502700 0.01459200
v 0.30345600 0.17086000 0.01459200
v -0.30935600 0.17179600 0.01459200
v 0.25757500 0.14502700 0.01459200
v 0.25712500 -0.14944200 0.01459200
v 0.30292700 -0.17541600 0.01459200
v 0.30345600 0.17086000 0.01459200
v 0.25712500 -0.14944200 0.01459200
v -0.26400400 -0.14864600 0.01459200
v -0.30988600 -0.17448000 0.01459200
v 0.30292700 -0.17541600 0.01459200
v 0.24346300 -0.14169500 -0.00748900
v 0.24389000 0.13732100 -0.00748900
v 0.24389000 0.13732100 0.01459200
v 0.24346300 -0.14169500 0.01459200
v 0.25757500 0.14502700 0.01459200
v -0.26355400 0.14582300 0.01459200
v -0.26355400 0.14582300 -0.00748900
v 0.25757500 0.14502700 -0.00748900
v 0.25712500 -0.14944200 0.01459200
v 0.25757500 0.14502700 0.01459200
v 0.25757500 0.14502700 -0.00748900
v 0.25712500 -0.14944200 -0.00748900
v -0.26355400 0.14582300 0.01459200
v -0.26400400 -0.14864600 0.01459200
v -0.26400400 -0.14864600 -0.00748900
v -0.26355400 0.14582300 -0.00748900
v -0.25031900 -0.14094100 -0.00748900
v -0.24989200 0.13807500 -0.00748900
v -0.26355400 0.14582300 -0.00748900
v -0.26400400 -0.14864600 -0.00748900
v -0.24989200 0.13807500 -0.00748900
v 0.24389000 0.13732100 -0.00748900
v 0.25757500 0.14502700 -0.00748900
v -0.26355400 0.14582300 -0.00748900
v 0.24389000 0.13732100 -0.00748900
v 0.24346300 -0.14169500 -0.00748900
v 0.25712500 -0.14944200 -0.00748900
v 0.25757500 0.14502700 -0.00748900
v 0.24346300 -0.14169500 -0.00748900
v 0.25712500 -0.14944200 -0.00748900
v 0.24389000 0.13732100 0.01459200
v -0.24989200 0.13807500 0.01459200
v -0.25031900 -0.14094100 0.01459200
v 0.24346300 -0.14169500 0.01459200
v -0.24989200 0.13807500 -0.00748900
v -0.25031900 -0.14094100 -0.00748900
v -0.25031900 -0.14094100 0.01459200
v -0.24989200 0.13807500 0.01459200
v -0.25031900 -0.14094100 -0.00748900
v 0.24346300 -0.14169500 -0.00748900
v 0.24346300 -0.14169500 0.01459200
v -0.25031900 -0.14094100 0.01459200
v 0.24389000 0.13732100 -0.00748900
v -0.24989200 0.13807500 -0.00748900
v -0.24989200 0.13807500 0.01459200
v 0.24389000 0.13732100 0.01459200
vn -0.00150000 -1.00000000 -0.00000000
vn -0.00150000 -1.00000000 -0.00000000
vn -0.00150000 -1.00000000 -0.00000000
vn -0.00150000 -1.00000000 -0.00000000
vn 0.00150000 1.00000000 -0.00000000
vn 0.00150000 1.00000000 -0.00000000
vn 0.00150000 1.00000000 -0.00000000
vn 0.00150000 1.00000000 -0.00000000
vn -0.00000000 -0.00000000 -1.00000000
vn -0.00000000 -0.00000000 -1.00000000
vn -0.00000000 -0.00000000 -1.00000000
vn -0.00000000 -0.00000000 -1.00000000
vn 0.00150000 1.00000000 -0.00000000
vn 0.00150000 1.00000000 -0.00000000
vn 0.00150000 1.00000000 -0.00000000
vn 0.00150000 1.00000000 -0.00000000
vn 1.00000000 -0.00150000 -0.00000000
vn 1.00000000 -0.00150000 -0.00000000
vn 1.00000000 -0.00150000 -0.00000000
vn 1.00000000 -0.00150000 -0.00000000
vn -0.43430000 -0.76580000 -0.47440000
vn -0.43430000 -0.76580000 -0.47440000
vn -0.43430000 -0.76580000 -0.47440000
vn -0.43190000 0.76710000 -0.47440000
vn -0.43190000 0.76710000 -0.47440000
vn -0.43190000 0.76710000 -0.47440000
vn 0.43190000 -0.76710000 -0.47440000
vn 0.43190000 -0.76710000 -0.47440000
vn 0.43190000 -0.76710000 -0.47440000
vn 0.43430000 0.76580000 -0.47440000
vn 0.43430000 0.76580000 -0.47440000
vn 0.43430000 0.76580000 -0.47440000
vn -0.45520000 -0.80270000 0.38530000
vn -0.45520000 -0.80270000 0.38530000
vn -0.45520000 -0.80270000 0.38530000
vn -0.45270000 0.80410000 0.38530000
vn -0.45270000 0.80410000 0.38530000
vn -0.45270000 0.80410000 0.38530000
vn 0.45520000 0.80270000 0.38530000
vn 0.45520000 0.80270000 0.38530000
vn 0.45520000 0.80270000 0.38530000
vn 0.45270000 -0.80410000 0.38530000
vn 0.45270000 -0.80410000 0.38530000
vn 0.45270000 -0.80410000 0.38530000
vn -0.67420000 0.00100000 -0.73850000
vn -0.67420000 0.00100000 -0.73850000
vn -0.67420000 0.00100000 -0.73850000
vn -0.67420000 0.00100000 -0.73850000
vn 0.00130000 0.85030000 -0.52630000
vn 0.00130000 0.85030000 -0.52630000
vn 0.00130000 0.85030000 -0.52630000
vn 0.00130000 0.85030000 -0.52630000
vn 0.67420000 -0.00100000 -0.73850000
vn 0.67420000 -0.00100000 -0.73850000
vn 0.67420000 -0.00100000 -0.73850000
vn 0.67420000 -0.00100000 -0.73850000
vn -0.00130000 -0.85030000 -0.52630000
vn -0.00130000 -0.85030000 -0.52630000
vn -0.00130000 -0.85030000 -0.52630000
vn -0.00130000 -0.85030000 -0.52630000
vn -0.76240000 0.00120000 0.64710000
vn -0.76240000 0.00120000 0.64710000
vn -0.76240000 0.00120000 0.64710000
vn -0.76240000 0.00120000 0.64710000
vn 0.00140000 0.90170000 0.43240000
vn 0.00140000 0.90170000 0.43240000
vn 0.00140000 0.90170000 0.43240000
vn 0.00140000 0.90170000 0.43240000
vn 0.76240000 -0.00120000 0.64710000
vn 0.76240000 -0.00120000 0.64710000
vn 0.76240000 -0.00120000 0.64710000
vn 0.76240000 -0.00120000 0.64710000
vn -0.00140000 -0.90170000 0.43240000
vn -0.00140000 -0.90170000 0.43240000
vn -0.00140000 -0.90170000 0.43240000
vn -0.00140000 -0.90170000 0.43240000
vn 0.49330000 0.86990000 -0.00000000
vn 0.49330000 0.86990000 -0.00000000
vn 0.49330000 0.86990000 -0.00000000
vn 0.49330000 0.86990000 -0.00000000
vn 0.49060000 -0.87140000 -0.00000000
vn 0.49060000 -0.87140000 -0.00000000
vn 0.49060000 -0.87140000 -0.00000000
vn 0.49060000 -0.87140000 -0.00000000
vn -0.49330000 -0.86990000 -0.00000000
vn -0.49330000 -0.86990000 -0.00000000
vn -0.49330000 -0.86990000 -0.00000000
vn -0.49330000 -0.86990000 -0.00000000
vn -0.49060000 0.87140000 -0.00000000
vn -0.49060000 0.87140000 -0.00000000
vn -0.49060000 0.87140000 -0.00000000
vn -0.49060000 0.87140000 -0.00000000
vn -1.00000000 0.00150000 -0.00000000
vn -1.00000000 0.00150000 -0.00000000
vn -1.00000000 0.00150000 -0.00000000
vn -1.00000000 0.00150000 -0.00000000
vn -0.00000000 -0.00000000 1.00000000
vn -0.00000000 -0.00000000 1.00000000
vn -0.00000000 -0.00000000 1.00000000
vn -0.00000000 -0.00000000 1.00000000
vn -0.00000000 -0.00000000 1.00000000
vn -0.00000000 -0.00000000 1.00000000
vn -0.00000000 -0.00000000 1.00000000
vn -0.00000000 -0.00000000 1.00000000
vn -0.00000000 -0.00000000 1.00000000
vn -0.00000000 -0.00000000 1.00000000
vn -0.00000000 -0.00000000 1.00000000
vn -0.00000000 -0.00000000 1.00000000
vn -0.00000000 -0.00000000 1.00000000
vn -0.00000000 -0.00000000 1.00000000
vn -0.00000000 -0.00000000 1.00000000
vn -0.00000000 -0.00000000 1.00000000
vn 1.00000000 -0.00150000 -0.00000000
vn 1.00000000 -0.00150000 -0.00000000
vn 1.00000000 -0.00150000 -0.00000000
vn 1.00000000 -0.00150000 -0.00000000
vn -0.00150000 -1.00000000 -0.00000000
vn -0.00150000 -1.00000000 -0.00000000
vn -0.00150000 -1.00000000 -0.00000000
vn -0.00150000 -1.00000000 -0.00000000
vn -1.00000000 0.00150000 -0.00000000
vn -1.00000000 0.00150000 -0.00000000
vn -1.00000000 0.00150000 -0.00000000
vn -1.00000000 0.00150000 -0.00000000
vn 1.00000000 -0.00150000 -0.00000000
vn 1.00000000 -0.00150000 -0.00000000
vn 1.00000000 -0.00150000 -0.00000000
vn 1.00000000 -0.00150000 -0.00000000
vn -0.00000000 -0.00000000 1.00000000
vn -0.00000000 -0.00000000 1.00000000
vn -0.00000000 -0.00000000 1.00000000
vn -0.00000000 -0.00000000 1.00000000
vn -0.00000000 -0.00000000 1.00000000
vn -0.00000000 -0.00000000 1.00000000
vn -0.00000000 -0.00000000 1.00000000
vn -0.00000000 -0.00000000 1.00000000
vn -0.00000000 -0.00000000 1.00000000
vn -0.00000000 -0.00000000 1.00000000
vn -0.00000000 -0.00000000 1.00000000
vn -0.00000000 -0.00000000 1.00000000
vn -0.00000000 -0.00000000 1.00000000
vn -0.00000000 -0.00000000 1.00000000
vn -0.00000000 -0.00000000 1.00000000
vn -0.00000000 -0.00000000 1.00000000
vn -0.00000000 -0.00000000 1.00000000
vn -0.00000000 -0.00000000 1.00000000
vn -1.00000000 0.00150000 -0.00000000
vn -1.00000000 0.00150000 -0.00000000
vn -1.00000000 0.00150000 -0.00000000
vn -1.00000000 0.00150000 -0.00000000
vn -0.00150000 -1.00000000 -0.00000000
vn -0.00150000 -1.00000000 -0.00000000
vn -0.00150000 -1.00000000 -0.00000000
vn -0.00150000 -1.00000000 -0.00000000
vn 0.00150000 1.00000000 -0.00000000
vn 0.00150000 1.00000000 -0.00000000
vn 0.00150000 1.00000000 -0.00000000
vn 0.00150000 1.00000000 -0.00000000
vt 0.70857500 0.43049300
vt 0.70857500 0.43049300
vt 0.70857500 0.43049300
vt 0.70857500 0.43049300
vt 0.70857500 0.43049300
vt 0.70857500 0.43049300
vt 0.70857500 0.43049300
vt 0.70857500 0.43049300
vt 0.70857500 0.43049300
vt 0.70857500 0.43049300
vt 0.70857500 0.43049300
vt 0.70857500 0.43049300
vt 0.70857500 0.43049300
vt 0.70857500 0.43049300
vt 0.70857500 0.43049300
vt 0.70857500 0.43049300
vt 0.70857500 0.43049300
vt 0.70857500 0.43049300
vt 0.70857500 0.43049300
vt 0.70857500 0.43049300
vt 0.70857500 0.43049300
vt 0.70857500 0.43049300
vt 0.70857500 0.43049300
vt 0.70857500 0.43049300
vt 0.70857500 0.43049300
vt 0.70857500 0.43049300
vt 0.70857500 0.43049300
vt 0.70857500 0.43049300
vt 0.70857500 0.43049300
vt 0.70857500 0.43049300
vt 0.70857500 0.43049300
vt 0.70857500 0.43049300
vt 0.70857500 0.43049300
vt 0.70857500 0.43049300
vt 0.70857500 0.43049300
vt 0.70857500 0.43049300
vt 0.70857500 0.43049300
vt 0.70857500 0.43049300
vt 0.70857500 0.43049300
vt 0.70857500 0.43049300
vt 0.70857500 0.43049300
vt 0.70857500 0.43049300
vt 0.70857500 0.43049300
vt 0.70857500 0.43049300
vt 0.70857500 0.43049300
vt 0.70857500 0.43049300
vt 0.70857500 0.43049300
vt 0.70857500 0.43049300
vt 0.70857500 0.43049300
vt 0.70857500 0.43049300
vt 0.70857500 0.43049300
vt 0.70857500 0.43049300
vt 0.70857500 0.43049300
vt 0.70857500 0.43049300
vt 0.70857500 0.43049300
vt 0.70857500 0.43049300
vt 0.70857500 0.43049300
vt 0.70857500 0.43049300
vt 0.70857500 0.43049300
vt 0.70857500 0.43049300
vt 0.70857500 0.43049300
vt 0.70857500 0.43049300
vt 0.70857500 0.43049300
vt 0.70857500 0.43049300
vt 0.70857500 0.43049300
vt 0.70857500 0.43049300
vt 0.70857500 0.43049300
vt 0.70857500 0.43049300
vt 0.70857500 0.43049300
vt 0.70857500 0.43049300
vt 0.70857500 0.43049300
vt 0.70857500 0.43049300
vt 0.70857500 0.43049300
vt 0.70857500 0.43049300
vt 0.70857500 0.43049300
vt 0.70857500 0.43049300
vt 0.70857500 0.43049300
vt 0.70857500 0.43049300
vt 0.70857500 0.43049300
vt 0.70857500 0.43049300
vt 0.70857500 0.43049300
vt 0.70857500 0.43049300
vt 0.70857500 0.43049300
vt 0.70857500 0.43049300
vt 0.70857500 0.43049300
vt 0.70857500 0.43049300
vt 0.70857500 0.43049300
vt 0.70857500 0.43049300
vt 0.70857500 0.43049300
vt 0.70857500 0.43049300
vt 0.70857500 0.43049300
vt 0.70857500 0.43049300
vt 0.70857500 0.43049300
vt 0.70857500 0.43049300
vt 0.70857500 0.43049300
vt 0.70857500 0.43049300
vt 0.70857500 0.43049300
vt 0.70857500 0.43049300
vt 0.70857500 0.43049300
vt 0.70857500 0.43049300
vt 0.70857500 0.43049300
vt 0.70857500 0.43049300
vt 0.70857500 0.43049300
vt 0.70857500 0.43049300
vt 0.70857500 0.43049300
vt 0.70857500 0.43049300
vt 0.70857500 0.43049300
vt 0.70857500 0.43049300
vt 0.70857500 0.43049300
vt 0.70857500 0.43049300
vt 0.70857500 0.43049300
vt 0.70857500 0.43049300
vt 0.70857500 0.43049300
vt 0.70857500 0.43049300
vt 0.70857500 0.43049300
vt 0.70857500 0.43049300
vt 0.70857500 0.43049300
vt 0.70857500 0.43049300
vt 0.70857500 0.43049300
vt 0.70857500 0.43049300
vt 0.70857500 0.43049300
vt 0.70857500 0.43049300
vt 0.70857500 0.43049300
vt 0.70857500 0.43049300
vt 0.70857500 0.43049300
vt 0.70857500 0.43049300
vt 0.70857500 0.43049300
vt 0.70857500 0.43049300
vt 0.70857500 0.43049300
vt 0.70857500 0.43049300
vt 0.70857500 0.43049300
vt 0.70857500 0.43049300
vt 0.70857500 0.43049300
vt 0.70857500 0.43049300
vt 0.70857500 0.43049300
vt 0.70857500 0.43049300
vt 0.70857500 0.43049300
vt 0.70857500 0.43049300
vt 0.70857500 0.43049300
vt 0.70857500 0.43049300
vt 0.70857500 0.43049300
vt 0.70857500 0.43049300
vt 0.70857500 0.43049300
vt 0.70857500 0.43049300
vt 0.70857500 0.43049300
vt 0.70857500 0.43049300
vt 0.70857500 0.43049300
vt 0.70857500 0.43049300
vt 0.70857500 0.43049300
vt 0.70857500 0.43049300
vt 0.70857500 0.43049300
vt 0.70857500 0.43049300
vt 0.70857500 0.43049300
vt 0.70857500 0.43049300
vt 0.70857500 0.43049300
vt 0.70857500 0.43049300
vt 0.70857500 0.43049300
vt 0.70857500 0.43049300
f 21/21/21 22/22/22 23/23/23
f 24/24/24 25/25/25 26/26/26
f 27/27/27 28/28/28 29/29/29
f 30/30/30 31/31/31 32/32/32
f 33/33/33 34/34/34 35/35/35
f 36/36/36 37/37/37 38/38/38
f 39/39/39 40/40/40 41/41/41
f 42/42/42 43/43/43 44/44/44
f 1/1/1 2/2/2 3/3/3
f 1/1/1 3/3/3 4/4/4
f 5/5/5 6/6/6 7/7/7
f 5/5/5 7/7/7 8/8/8
f 9/9/9 10/10/10 11/11/11
f 9/9/9 11/11/11 12/12/12
f 13/13/13 14/14/14 15/15/15
f 13/13/13 15/15/15 16/16/16
f 17/17/17 18/18/18 19/19/19
f 17/17/17 19/19/19 20/20/20
f 45/45/45 46/46/46 47/47/47
f 45/45/45 47/47/47 48/48/48
f 49/49/49 50/50/50 51/51/51
f 49/49/49 51/51/51 52/52/52
f 53/53/53 54/54/54 55/55/55
f 53/53/53 55/55/55 56/56/56
f 57/57/57 58/58/58 59/59/59
f 57/57/57 59/59/59 60/60/60
f 61/61/61 62/62/62 63/63/63
f 61/61/61 63/63/63 64/64/64
f 65/65/65 66/66/66 67/67/67
f 65/65/65 67/67/67 68/68/68
f 69/69/69 70/70/70 71/71/71
f 69/69/69 71/71/71 72/72/72
f 73/73/73 74/74/74 75/75/75
f 73/73/73 75/75/75 76/76/76
f 77/77/77 78/78/78 79/79/79
f 77/77/77 79/79/79 80/80/80
f 81/81/81 82/82/82 83/83/83
f 81/81/81 83/83/83 84/84/84
f 85/85/85 86/86/86 87/87/87
f 85/85/85 87/87/87 88/88/88
f 89/89/89 90/90/90 91/91/91
f 89/89/89 91/91/91 92/92/92
f 93/93/93 94/94/94 95/95/95
f 93/93/93 95/95/95 96/96/96
f 97/97/97 98/98/98 99/99/99
f 97/97/97 99/99/99 100/100/100
f 101/101/101 102/102/102 103/103/103
f 101/101/101 103/103/103 104/104/104
f 105/105/105 106/106/106 107/107/107
f 105/105/105 107/107/107 108/108/108
f 109/109/109 110/110/110 111/111/111
f 109/109/109 111/111/111 112/112/112
f 113/113/113 114/114/114 115/115/115
f 113/113/113 115/115/115 116/116/116
f 117/117/117 118/118/118 119/119/119
f 117/117/117 119/119/119 120/120/120
f 121/121/121 122/122/122 123/123/123
f 121/121/121 123/123/123 124/124/124
f 125/125/125 126/126/126 127/127/127
f 125/125/125 127/127/127 128/128/128
f 129/129/129 130/130/130 131/131/131
f 129/129/129 131/131/131 132/132/132
f 133/133/133 134/134/134 135/135/135
f 133/133/133 135/135/135 136/136/136
f 137/137/137 138/138/138 139/139/139
f 137/137/137 139/139/139 140/140/140
f 141/141/141 129/129/129 132/132/132
f 141/141/141 132/132/132 142/142/142
f 143/143/143 144/144/144 145/145/145
f 143/143/143 145/145/145 146/146/146
f 147/147/147 148/148/148 149/149/149
f 147/147/147 149/149/149 150/150/150
f 151/151/151 152/152/152 153/153/153
f 151/151/151 153/153/153 154/154/154
f 155/155/155 156/156/156 157/157/157
f 155/155/155 157/157/157 158/158/158

